# xmcd
#
# Track frame offsets:
#	150
#	18826
#	40950
#	58335
#	73285
#	86099
#	101066
#	116680
#	133172
#	149918
#	164284
#	178174
#	192818
#	209126
#	226071
#	242446
#	256982
#	273844
#	286080
#	299354
#
# Disc length: 4196 seconds
#
# Revision: 0
# Processed by: cddbd v1.5.2PL0 Copyright (c) Steve Scherf et al.
# Submitted via: audiograbber 1.83.01
#
DISCID=3b106214
DTITLE=Various Artist - Country Music Messe 2010 CD 2
DYEAR=2010
DGENRE=Country
TTITLE0=Jamestown Ferry - No Regrets
TTITLE1=Doug Adkins - Bismarck North Dakota
TTITLE2=Sawyer - Wheels
TTITLE3=Daniel T. Coates - Call My Name
TTITLE4=Hannes and his Ballroom Kings - Hey, Mr. Cotton Picker
TTITLE5=Tish Hinojosa - Our Little Planet
TTITLE6=Michael Lonstar - Song For An Unwanted Woman
TTITLE7=Texas Heat - Three Bottles Left
TTITLE8=Gitty - California
TTITLE9=Maureen Mac Gillavry - Blue Kentucky Girl
TTITLE10=Henry Eye - Times Do Change
TTITLE11=Last Hot Dogs - Es gibt Momente
TTITLE12=Levin Langford - Sehnsucht nach Hause
TTITLE13=Take U.S. Music - Eyes Of A Child
TTITLE14=Stan Silver - True Love (is hard to find)
TTITLE15=The Hunters - Gilmore Creek
TTITLE16=The Twang - Let Me Entertain You
TTITLE17=Tore Andersen - Goodbye Blues
TTITLE18=Fred Heyden - Listen To The Country
TTITLE19=Wild Bunch - Train
EXTD=
EXTT0=
EXTT1=
EXTT2=
EXTT3=
EXTT4=
EXTT5=
EXTT6=
EXTT7=
EXTT8=
EXTT9=
EXTT10=
EXTT11=
EXTT12=
EXTT13=
EXTT14=
EXTT15=
EXTT16=
EXTT17=
EXTT18=
EXTT19=
PLAYORDER=
